<svg xmlns="http://www.w3.org/2000/svg" version="1.1" width="3300" height="2000"><g id="Notes"><style>
    text {
      font-family: monospace;
      text-anchor: middle;
    }
    text.emphasis {
      font-weight:bold;
    }
    text.lanchor {
      text-anchor: start;
    }
  </style><rect height="2200" id="artboard" fill="white" width="3300" x="0" y="0"/><line id="" style="fill:none;stroke:black;stroke-width:0.5;" x1="263" x2="3036" y1="292" y2="292"/><text class="lanchor emphasis" transform="matrix(1 0 0 1 263 322)">Weight/Scale Variations</text><text transform="matrix(1 0 0 1 559.711 322)">Ultralight</text><text transform="matrix(1 0 0 1 856.422 322)">Thin</text><text transform="matrix(1 0 0 1 1153.13 322)">Light</text><text transform="matrix(1 0 0 1 1449.84 322)">Regular</text><text transform="matrix(1 0 0 1 1746.56 322)">Medium</text><text transform="matrix(1 0 0 1 2043.27 322)">Semibold</text><text transform="matrix(1 0 0 1 2339.98 322)">Bold</text><text transform="matrix(1 0 0 1 2636.69 322)">Heavy</text><text transform="matrix(1 0 0 1 2933.4 322)">Black</text><text id="template-version" style="text-anchor: end;" transform="matrix(1 0 0 1 3036 1933)">Template v.1.0</text><text class="lanchor" transform="matrix(1 0 0 1 263 726)">Small</text><text class="lanchor" transform="matrix(1 0 0 1 263 1156)">Medium</text><text class="lanchor" transform="matrix(1 0 0 1 263 1586)">Large</text></g><g id="Guides"><g id="H-reference" style="fill:#27AAE1;stroke:none;" transform="matrix(1 0 0 1 339 696)"><path d="M 54.9316 0 L 57.666 0 L 30.5664 -70.459 L 28.0762 -70.459 L 0.976562 0 L 3.66211 0 L 12.9395 -24.4629 L 45.7031 -24.4629 Z M 29.1992 -67.0898 L 29.4434 -67.0898 L 44.8242 -26.709 L 13.8184 -26.709 Z"/></g><line id="Baseline-S" style="fill:none;stroke:#27AAE1;opacity:1;stroke-width:0.577;" x1="263" x2="3036" y1="696" y2="696"/><line id="Capline-S" style="fill:none;stroke:#27AAE1;opacity:1;stroke-width:0.577;" x1="263" x2="3036" y1="625.541" y2="625.541"/><g id="H-reference" style="fill:#27AAE1;stroke:none;" transform="matrix(1 0 0 1 339 1126)"><path d="M 54.9316 0 L 57.666 0 L 30.5664 -70.459 L 28.0762 -70.459 L 0.976562 0 L 3.66211 0 L 12.9395 -24.4629 L 45.7031 -24.4629 Z M 29.1992 -67.0898 L 29.4434 -67.0898 L 44.8242 -26.709 L 13.8184 -26.709 Z"/></g><line id="Baseline-M" style="fill:none;stroke:#27AAE1;opacity:1;stroke-width:0.577;" x1="263" x2="3036" y1="1126" y2="1126"/><line id="Capline-M" style="fill:none;stroke:#27AAE1;opacity:1;stroke-width:0.577;" x1="263" x2="3036" y1="1055.54" y2="1055.54"/><g id="H-reference" style="fill:#27AAE1;stroke:none;" transform="matrix(1 0 0 1 339 1556)"><path d="M 54.9316 0 L 57.666 0 L 30.5664 -70.459 L 28.0762 -70.459 L 0.976562 0 L 3.66211 0 L 12.9395 -24.4629 L 45.7031 -24.4629 Z M 29.1992 -67.0898 L 29.4434 -67.0898 L 44.8242 -26.709 L 13.8184 -26.709 Z"/></g><line id="Baseline-L" style="fill:none;stroke:#27AAE1;opacity:1;stroke-width:0.577;" x1="263" x2="3036" y1="1556" y2="1556"/><line id="Capline-L" style="fill:none;stroke:#27AAE1;opacity:1;stroke-width:0.577;" x1="263" x2="3036" y1="1485.54" y2="1485.54"/><rect height="119.336" id="left-margin" style="fill:darkred;stroke:none;opacity:0.4;" width="12.4512" x="1394.06" y="1030.79"/><rect height="119.336" id="right-margin" style="fill:darkgreen;stroke:none;opacity:0.4;" width="12.4512" x="1502.5112" y="1030.79"/><rect x="1406.5112" y="1045" width="96" height="96" fill="none" stroke="blue" stroke-dasharray="5"/><rect x="1394.06" y="1030.79" width="120.9024" height="119.336" fill="none" stroke="blue"/></g><g id="Symbols"><g id="Bold-L" transform="matrix(1 0 0 1 2266 1556)"><path d="M774.0 2006.1950000000002 H1783.425 V1812.6950000000002 H774.0 V2006.1950000000002 Z M774.0 1586.9450000000002 H2322.0 V1393.4450000000002 H774.0 V1586.9450000000002 Z M774.0 1167.6950000000002 H2322.0 V974.195 H774.0 V1167.6950000000002 Z M177.375 3115.595 V677.495 Q177.375 553.4518250000001 265.981875 462.2875250000001 Q354.58875 371.12 480.52500000000003 371.12 H2615.475 Q2739.518175 371.12 2830.682475 462.2875250000001 Q2921.85 553.4518250000001 2921.85 677.495 V2296.445 Q2921.85 2419.15625 2830.682475 2509.3756249999997 Q2739.518175 2599.595 2615.475 2599.595 H693.375 L177.375 3115.595 Z"/></g><g id="Semibold-L" transform="matrix(1 0 0 1 1970.27 1556)"><path d="M774.0 2006.1950000000002 H1783.425 V1812.6950000000002 H774.0 V2006.1950000000002 Z M774.0 1586.9450000000002 H2322.0 V1393.4450000000002 H774.0 V1586.9450000000002 Z M774.0 1167.6950000000002 H2322.0 V974.195 H774.0 V1167.6950000000002 Z M212.427525 3080.5424749999997 V664.875575 Q212.427525 562.514075 287.750625 485.04312500000003 Q363.0705 407.57540000000006 467.905575 407.57540000000006 H2628.0944250000002 Q2730.455925 407.57540000000006 2807.926875 485.04312500000003 Q2885.3946 562.514075 2885.3946 664.875575 V2309.064425 Q2885.3946 2410.6744999999996 2807.926875 2487.606875 Q2730.455925 2564.5424749999997 2628.0944250000002 2564.5424749999997 H728.4275250000001 L212.427525 3080.5424749999997 Z"/></g><g id="Medium-L" transform="matrix(1 0 0 1 1674.31 1556)"><path d="M774.0 2006.1950000000002 H1783.425 V1812.6950000000002 H774.0 V2006.1950000000002 Z M774.0 1586.9450000000002 H2322.0 V1393.4450000000002 H774.0 V1586.9450000000002 Z M774.0 1167.6950000000002 H2322.0 V974.195 H774.0 V1167.6950000000002 Z M238.72095000000002 3054.24905 V655.4102 Q238.72095000000002 569.3123750000001 304.075575 502.116275 Q369.433425 434.91695000000004 458.44019999999995 434.91695000000004 H2637.5598 Q2723.657625 434.91695000000004 2790.853725 502.116275 Q2858.05305 569.3123750000001 2858.05305 655.4102 V2318.5298 Q2858.05305 2404.311575 2790.853725 2471.281925 Q2723.657625 2538.24905 2637.5598 2538.24905 H754.72095 L238.72095000000002 3054.24905 Z"/></g><g id="Regular-L" transform="matrix(1 0 0 1 1378.56 1556)"><path d="M774.0 2006.1950000000002 H1783.425 V1812.6950000000002 H774.0 V2006.1950000000002 Z M774.0 1586.9450000000002 H2322.0 V1393.4450000000002 H774.0 V1586.9450000000002 Z M774.0 1167.6950000000002 H2322.0 V974.195 H774.0 V1167.6950000000002 Z M258.0 3034.97 V648.47 Q258.0 574.2950000000001 316.05 514.6325 Q374.1 454.97 451.5 454.97 H2644.5 Q2718.675 454.97 2778.3375 514.6325 Q2838.0 574.2950000000001 2838.0 648.47 V2325.47 Q2838.0 2399.645 2778.3375 2459.3075 Q2718.675 2518.97 2644.5 2518.97 H774.0 L258.0 3034.97 Z"/></g><g id="Light-L" transform="matrix(1 0 0 1 1082.77 1556)"><path d="M806.253225 1972.703375 H1757.37345 V1826.3399749999999 H806.253225 V1972.703375 Z M806.253225 1562.1350750000001 H2289.746775 V1415.7749 H806.253225 V1562.1350750000001 Z M806.253225 1151.5700000000002 H2289.746775 V1005.2066000000001 H806.253225 V1151.5700000000002 Z M322.50322500000004 2910.9235999999996 V705.53315 Q322.50322500000004 631.35815 377.454 575.4173000000001 Q432.40155000000004 519.4732250000001 508.56314999999995 519.4732250000001 H2587.43685 Q2661.6118500000002 519.4732250000001 2717.5527 575.4173000000001 Q2773.496775 631.35815 2773.496775 705.53315 V2268.4068500000003 Q2773.496775 2342.58185 2717.5527 2398.5227 Q2661.6118500000002 2454.466775 2587.43685 2454.466775 H778.963275 L322.50322500000004 2910.9235999999996 Z"/></g><g id="Thin-L" transform="matrix(1 0 0 1 787.282 1556)"><path d="M838.5 1939.2149749999999 H1731.32835 V1839.981725 H838.5 V1939.2149749999999 Z M838.5 1537.328375 H2257.5 V1438.0983500000002 H838.5 V1537.328375 Z M838.5 1135.4450000000002 H2257.5 V1036.2149749999999 H838.5 V1135.4450000000002 Z M387.0 2786.893325 V762.5834000000001 Q387.0 688.4084 438.848325 636.1892 Q490.69665 583.97 565.6134 583.97 H2530.3866 Q2604.5616 583.97 2656.7808 636.1892 Q2709.0 688.4084 2709.0 762.5834000000001 V2211.3566 Q2709.0 2285.5316 2656.7808 2337.7508 Q2604.5616 2389.97 2530.3866 2389.97 H783.923325 L387.0 2786.893325 Z"/></g><g id="Ultralight-L" transform="matrix(1 0 0 1 491.205 1556)"><path d="M857.85 1919.12 H1715.7 V1848.17 H857.85 V1919.12 Z M857.85 1522.4450000000002 H2238.15 V1451.495 H857.85 V1522.4450000000002 Z M857.85 1125.77 H2238.15 V1054.8200000000002 H857.85 V1125.77 Z M425.7 2712.47 V796.82 Q425.7 722.645 475.6875 672.6575 Q525.6750000000001 622.6700000000001 599.85 622.6700000000001 H2496.15 Q2570.3250000000003 622.6700000000001 2620.3125 672.6575 Q2670.3 722.645 2670.3 796.82 V2177.12 Q2670.3 2251.295 2620.3125 2301.2825 Q2570.3250000000003 2351.27 2496.15 2351.27 H786.9 L425.7 2712.47 Z"/></g><g id="Bold-M" transform="matrix(1 0 0 1 2281.8 1126)"><path d="M1200.0 3184.77 H2800.0 V2784.77 H1200.0 V3184.77 Z M1200.0 2584.77 H3600.0 V2184.77 H1200.0 V2584.77 Z M1200.0 1984.77 H3600.0 V1584.77 H1200.0 V1984.77 Z M230.0 4954.77 V1244.77 Q230.0 979.77 412.5 797.27 Q595.0 614.77 860.0 614.77 H3940.0 Q4205.0 614.77 4387.5 797.27 Q4570.0 979.77 4570.0 1244.77 V3524.77 Q4570.0 3789.77 4387.5 3972.27 Q4205.0 4154.77 3940.0 4154.77 H1030.0 L230.0 4954.77 Z"/></g><g id="Semibold-M" transform="matrix(1 0 0 1 1985.97 1126)"><path d="M1200.0 3184.77 H2800.0 V2784.77 H1200.0 V3184.77 Z M1200.0 2584.77 H3600.0 V2184.77 H1200.0 V2584.77 Z M1200.0 1984.77 H3600.0 V1584.77 H1200.0 V1984.77 Z M303.90999999999997 4880.860000000001 V1218.685 Q303.90999999999997 997.1600000000001 458.15 842.92 Q612.39 688.6800000000001 833.915 688.6800000000001 H3966.085 Q4187.610000000001 688.6800000000001 4341.85 842.92 Q4496.09 997.1600000000001 4496.09 1218.685 V3550.855 Q4496.09 3772.38 4341.85 3926.62 Q4187.610000000001 4080.86 3966.085 4080.86 H1103.91 L303.90999999999997 4880.860000000001 Z"/></g><g id="Medium-M" transform="matrix(1 0 0 1 1689.91 1126)"><path d="M1200.0 3184.77 H2800.0 V2784.77 H1200.0 V3184.77 Z M1200.0 2584.77 H3600.0 V2184.77 H1200.0 V2584.77 Z M1200.0 1984.77 H3600.0 V1584.77 H1200.0 V1984.77 Z M359.345 4825.425 V1199.12 Q359.345 1010.2049999999999 492.39 877.1600000000001 Q625.4350000000001 744.115 814.35 744.115 H3985.65 Q4174.5650000000005 744.115 4307.610000000001 877.1600000000001 Q4440.655 1010.2049999999999 4440.655 1199.12 V3570.42 Q4440.655 3759.335 4307.610000000001 3892.38 Q4174.5650000000005 4025.4249999999997 3985.65 4025.4249999999997 H1159.345 L359.345 4825.425 Z"/></g><g id="Regular-M" transform="matrix(1 0 0 1 1394.06 1126)"><path d="M1200.0 3184.77 H2800.0 V2784.77 H1200.0 V3184.77 Z M1200.0 2584.77 H3600.0 V2184.77 H1200.0 V2584.77 Z M1200.0 1984.77 H3600.0 V1584.77 H1200.0 V1984.77 Z M400.0 4784.77 V1184.77 Q400.0 1019.77 517.5 902.27 Q635.0 784.77 800.0 784.77 H4000.0 Q4165.0 784.77 4282.5 902.27 Q4400.0 1019.77 4400.0 1184.77 V3584.77 Q4400.0 3749.77 4282.5 3867.27 Q4165.0 3984.77 4000.0 3984.77 H1200.0 L400.0 4784.77 Z"/></g><g id="Light-M" transform="matrix(1 0 0 1 1098.18 1126)"><path d="M1250.005 3134.765 H2749.995 V2834.775 H1250.005 V3134.765 Z M1250.005 2534.765 H3549.995 V2234.775 H1250.005 V2534.765 Z M1250.005 1934.765 H3549.995 V1634.7749999999999 H1250.005 V1934.765 Z M500.005 4592.45 V1246.315 Q500.005 1094.775 605.005 989.7750000000001 Q710.005 884.775 861.545 884.775 H3938.455 Q4089.995 884.775 4194.995 989.7750000000001 Q4299.995 1094.775 4299.995 1246.315 V3523.225 Q4299.995 3674.765 4194.995 3779.765 Q4089.995 3884.765 3938.455 3884.765 H1207.695 L500.005 4592.45 Z"/></g><g id="Thin-M" transform="matrix(1 0 0 1 802.565 1126)"><path d="M1300.0 3084.77 H2700.0 V2884.77 H1300.0 V3084.77 Z M1300.0 2484.77 H3500.0 V2284.77 H1300.0 V2484.77 Z M1300.0 1884.77 H3500.0 V1684.77 H1300.0 V1884.77 Z M600.0 4400.155000000001 V1307.845 Q600.0 1169.77 692.5 1077.27 Q785.0 984.77 923.075 984.77 H3876.925 Q4015.0 984.77 4107.5 1077.27 Q4200.0 1169.77 4200.0 1307.845 V3461.695 Q4200.0 3599.77 4107.5 3692.27 Q4015.0 3784.77 3876.925 3784.77 H1215.385 L600.0 4400.155000000001 Z"/></g><g id="Ultralight-M" transform="matrix(1 0 0 1 506.415 1126)"><path d="M1330.0 3054.77 H2670.0 V2914.77 H1330.0 V3054.77 Z M1330.0 2454.77 H3470.0 V2314.77 H1330.0 V2454.77 Z M1330.0 1854.77 H3470.0 V1714.77 H1330.0 V1854.77 Z M660.0 4284.77 V1344.77 Q660.0 1214.77 745.0 1129.77 Q830.0 1044.77 960.0 1044.77 H3840.0 Q3970.0 1044.77 4055.0 1129.77 Q4140.0 1214.77 4140.0 1344.77 V3424.77 Q4140.0 3554.77 4055.0 3639.77 Q3970.0 3724.77 3840.0 3724.77 H1220.0 L660.0 4284.77 Z"/></g><g id="Bold-S" transform="matrix(1 0 0 1 2294.23 696)"><path d="M1136.16 3022.9339999999997 H2660.508 V2625.278 H1136.16 V3022.9339999999997 Z M1136.16 2464.3219999999997 H3408.48 V2066.6659999999997 H1136.16 V2464.3219999999997 Z M1136.16 1905.71 H3408.48 V1508.054 H1136.16 V1905.71 Z M217.764 4698.77 V1205.078 Q217.764 944.7080000000001 395.289 767.183 Q572.814 589.6579999999999 833.184 589.6579999999999 H3711.456 Q3971.826 589.6579999999999 4149.351 767.183 Q4326.876 944.7080000000001 4326.876 1205.078 V3325.91 Q4326.876 3586.2799999999997 4149.351 3763.805 Q3971.826 3941.33 3711.456 3941.33 H975.204 L217.764 4698.77 Z"/></g><g id="Semibold-S" transform="matrix(1 0 0 1 1998.1 696)"><path d="M1136.16 3022.9339999999997 H2660.508 V2625.278 H1136.16 V3022.9339999999997 Z M1136.16 2464.3219999999997 H3408.48 V2066.6659999999997 H1136.16 V2464.3219999999997 Z M1136.16 1905.71 H3408.48 V1508.054 H1136.16 V1905.71 Z M287.741988 4628.792012 V1180.380722 Q287.741988 961.1728520000001 438.51041999999995 810.4044200000001 Q589.2788519999999 659.635988 808.486722 659.635988 H3736.153278 Q3955.3611480000004 659.635988 4106.12958 810.4044200000001 Q4256.898012 961.1728520000001 4256.898012 1180.380722 V3350.607278 Q4256.898012 3569.815148 4106.12958 3720.58358 Q3955.3611480000004 3871.352012 3736.153278 3871.352012 H1045.181988 L287.741988 4628.792012 Z"/></g><g id="Medium-S" transform="matrix(1 0 0 1 1701.85 696)"><path d="M1136.16 3022.9339999999997 H2660.508 V2625.278 H1136.16 V3022.9339999999997 Z M1136.16 2464.3219999999997 H3408.48 V2066.6659999999997 H1136.16 V2464.3219999999997 Z M1136.16 1905.71 H3408.48 V1508.054 H1136.16 V1905.71 Z M340.227846 4576.306154 V1161.8565800000001 Q340.227846 973.523858 470.92885199999995 842.822852 Q601.629858 712.121846 789.96258 712.121846 H3754.67742 Q3943.010142 712.121846 4073.7111480000003 842.822852 Q4204.412154 973.523858 4204.412154 1161.8565800000001 V3369.1314199999997 Q4204.412154 3557.464142 4073.7111480000003 3688.165148 Q3943.010142 3818.866154 3754.67742 3818.866154 H1097.667846 L340.227846 4576.306154 Z"/></g><g id="Regular-S" transform="matrix(1 0 0 1 1405.73 696)"><path d="M1136.16 3022.9339999999997 H2660.508 V2625.278 H1136.16 V3022.9339999999997 Z M1136.16 2464.3219999999997 H3408.48 V2066.6659999999997 H1136.16 V2464.3219999999997 Z M1136.16 1905.71 H3408.48 V1508.054 H1136.16 V1905.71 Z M378.72 4537.814 V1148.27 Q378.72 982.5800000000002 494.703 866.597 Q610.686 750.614 776.376 750.614 H3768.264 Q3933.954 750.614 4049.937 866.597 Q4165.92 982.5800000000002 4165.92 1148.27 V3382.718 Q4165.92 3548.408 4049.937 3664.3909999999996 Q3933.954 3780.374 3768.264 3780.374 H1136.16 L378.72 4537.814 Z"/></g><g id="Light-S" transform="matrix(1 0 0 1 1109.75 696)"><path d="M1183.504734 2975.589266 H2613.163266 V2672.6227339999996 H1183.504734 V2975.589266 Z M1183.504734 2416.977266 H3361.1352660000002 V2114.0107339999995 H1183.504734 V2416.977266 Z M1183.504734 1858.3652660000002 H3361.1352660000002 V1555.3987339999999 H1183.504734 V1858.3652660000002 Z M473.404734 4355.725424 V1206.5408060000002 Q473.404734 1053.594734 577.552734 949.4467340000001 Q681.700734 845.298734 834.646806 845.298734 H3709.993194 Q3862.9392660000003 845.298734 3967.087266 949.4467340000001 Q4071.235266 1053.594734 4071.235266 1206.5408060000002 V3324.447194 Q4071.235266 3477.393266 3967.087266 3581.5412659999997 Q3862.9392660000003 3685.689266 3709.993194 3685.689266 H1143.445626 L473.404734 4355.725424 Z"/></g><g id="Thin-S" transform="matrix(1 0 0 1 814.015 696)"><path d="M1230.84 2928.254 H2565.828 V2719.9579999999996 H1230.84 V2928.254 Z M1230.84 2369.642 H3313.8 V2161.346 H1230.84 V2369.642 Z M1230.84 1811.03 H3313.8 V1602.7340000000002 H1230.84 V1811.03 Z M568.08 4173.660518000001 V1264.7974100000001 Q568.08 1124.6000000000001 660.393 1032.287 Q752.706 939.9739999999999 892.90341 939.9739999999999 H3651.73659 Q3791.934 939.9739999999999 3884.247 1032.287 Q3976.56 1124.6000000000001 3976.56 1264.7974100000001 V3266.1905899999997 Q3976.56 3406.388 3884.247 3498.701 Q3791.934 3591.0139999999997 3651.73659 3591.0139999999997 H1150.726518 L568.08 4173.660518000001 Z"/></g><g id="Ultralight-S" transform="matrix(1 0 0 1 517.792 696)"><path d="M1259.244 2899.85 H2537.424 V2748.3619999999996 H1259.244 V2899.85 Z M1259.244 2341.238 H3285.396 V2189.75 H1259.244 V2341.238 Z M1259.244 1782.626 H3285.396 V1631.1380000000001 H1259.244 V1782.626 Z M624.888 4064.414 V1299.758 Q624.888 1167.2060000000001 710.1 1081.9940000000001 Q795.312 996.7820000000002 927.864 996.7820000000002 H3616.776 Q3749.328 996.7820000000002 3834.54 1081.9940000000001 Q3919.752 1167.2060000000001 3919.752 1299.758 V3231.23 Q3919.752 3363.7819999999997 3834.54 3448.9939999999997 Q3749.328 3534.2059999999997 3616.776 3534.2059999999997 H1155.096 L624.888 4064.414 Z"/></g></g></svg>