<svg xmlns="http://www.w3.org/2000/svg" version="1.1" width="3300" height="2000"><g id="Notes"><style>
    text {
      font-family: monospace;
      text-anchor: middle;
    }
    text.emphasis {
      font-weight:bold;
    }
    text.lanchor {
      text-anchor: start;
    }
  </style><rect height="2200" id="artboard" fill="white" width="3300" x="0" y="0"/><line id="" style="fill:none;stroke:black;stroke-width:0.5;" x1="263" x2="3036" y1="292" y2="292"/><text class="lanchor emphasis" transform="matrix(1 0 0 1 263 322)">Weight/Scale Variations</text><text transform="matrix(1 0 0 1 559.711 322)">Ultralight</text><text transform="matrix(1 0 0 1 856.422 322)">Thin</text><text transform="matrix(1 0 0 1 1153.13 322)">Light</text><text transform="matrix(1 0 0 1 1449.84 322)">Regular</text><text transform="matrix(1 0 0 1 1746.56 322)">Medium</text><text transform="matrix(1 0 0 1 2043.27 322)">Semibold</text><text transform="matrix(1 0 0 1 2339.98 322)">Bold</text><text transform="matrix(1 0 0 1 2636.69 322)">Heavy</text><text transform="matrix(1 0 0 1 2933.4 322)">Black</text><text id="template-version" style="text-anchor: end;" transform="matrix(1 0 0 1 3036 1933)">Template v.1.0</text><text class="lanchor" transform="matrix(1 0 0 1 263 726)">Small</text><text class="lanchor" transform="matrix(1 0 0 1 263 1156)">Medium</text><text class="lanchor" transform="matrix(1 0 0 1 263 1586)">Large</text></g><g id="Guides"><g id="H-reference" style="fill:#27AAE1;stroke:none;" transform="matrix(1 0 0 1 339 696)"><path d="M 54.9316 0 L 57.666 0 L 30.5664 -70.459 L 28.0762 -70.459 L 0.976562 0 L 3.66211 0 L 12.9395 -24.4629 L 45.7031 -24.4629 Z M 29.1992 -67.0898 L 29.4434 -67.0898 L 44.8242 -26.709 L 13.8184 -26.709 Z"/></g><line id="Baseline-S" style="fill:none;stroke:#27AAE1;opacity:1;stroke-width:0.577;" x1="263" x2="3036" y1="696" y2="696"/><line id="Capline-S" style="fill:none;stroke:#27AAE1;opacity:1;stroke-width:0.577;" x1="263" x2="3036" y1="625.541" y2="625.541"/><g id="H-reference" style="fill:#27AAE1;stroke:none;" transform="matrix(1 0 0 1 339 1126)"><path d="M 54.9316 0 L 57.666 0 L 30.5664 -70.459 L 28.0762 -70.459 L 0.976562 0 L 3.66211 0 L 12.9395 -24.4629 L 45.7031 -24.4629 Z M 29.1992 -67.0898 L 29.4434 -67.0898 L 44.8242 -26.709 L 13.8184 -26.709 Z"/></g><line id="Baseline-M" style="fill:none;stroke:#27AAE1;opacity:1;stroke-width:0.577;" x1="263" x2="3036" y1="1126" y2="1126"/><line id="Capline-M" style="fill:none;stroke:#27AAE1;opacity:1;stroke-width:0.577;" x1="263" x2="3036" y1="1055.54" y2="1055.54"/><g id="H-reference" style="fill:#27AAE1;stroke:none;" transform="matrix(1 0 0 1 339 1556)"><path d="M 54.9316 0 L 57.666 0 L 30.5664 -70.459 L 28.0762 -70.459 L 0.976562 0 L 3.66211 0 L 12.9395 -24.4629 L 45.7031 -24.4629 Z M 29.1992 -67.0898 L 29.4434 -67.0898 L 44.8242 -26.709 L 13.8184 -26.709 Z"/></g><line id="Baseline-L" style="fill:none;stroke:#27AAE1;opacity:1;stroke-width:0.577;" x1="263" x2="3036" y1="1556" y2="1556"/><line id="Capline-L" style="fill:none;stroke:#27AAE1;opacity:1;stroke-width:0.577;" x1="263" x2="3036" y1="1485.54" y2="1485.54"/><rect height="119.336" id="left-margin" style="fill:darkred;stroke:none;opacity:0.4;" width="12.4512" x="1394.06" y="1030.79"/><rect height="119.336" id="right-margin" style="fill:darkgreen;stroke:none;opacity:0.4;" width="12.4512" x="1502.5112" y="1030.79"/><rect x="1406.5112" y="1045" width="96" height="96" fill="none" stroke="blue" stroke-dasharray="5"/><rect x="1394.06" y="1030.79" width="120.9024" height="119.336" fill="none" stroke="blue"/></g><g id="Symbols"><g id="Bold-L" transform="matrix(1 0 0 1 2266 1556)"><path d="M167.70000000000002 3183.32  867.525 1225.745  2134.9500000000003 2480.27  167.70000000000002 3183.32 Z M1889.8500000000001 1893.3200000000002  1744.7250000000001 1748.1950000000002  2476.8 1016.12 Q2592.9 900.02 2775.1125 898.4075 Q2957.3250000000003 896.7950000000001 3076.65 1012.8950000000001 L3131.475 1067.7200000000003 L2983.125 1212.8450000000003 L2921.85 1151.5700000000002 Q2860.5750000000003 1090.295 2778.3375 1088.6825 Q2696.1 1087.0700000000002 2634.8250000000003 1151.5700000000002 L1889.8500000000001 1893.3200000000002 Z M1302.9 1322.495  1157.775 1174.145  1238.4 1090.295 Q1315.8 1016.12 1310.9625 922.5950000000001 Q1306.125 829.07 1238.4 761.345 L1148.1000000000001 671.0450000000001 L1296.45 525.9200000000001 L1380.3 609.77 Q1506.075 738.77 1504.4625 929.045 Q1502.8500000000001 1119.3200000000002 1377.075 1248.3200000000002 L1302.9 1322.495 Z M1602.825 1606.295  1454.4750000000001 1461.17  1915.65 999.995 Q1976.925 938.7200000000001 1975.3125 843.5825 Q1973.7 748.445 1912.425 687.1700000000001 L1715.7 490.44500000000005 L1864.05 342.095 L2067.225 545.27 Q2180.1 664.595 2183.3250000000003 843.5825 Q2186.55 1022.57 2070.4500000000003 1138.67 L1602.825 1606.295 Z M2186.55 2193.245  2038.2 2044.895  2176.875 1909.4450000000002 Q2305.875 1780.4450000000002 2484.8625 1777.2200000000003 Q2663.85 1773.995 2792.85 1902.995 L2957.3250000000003 2067.47 L2808.975 2215.82 L2641.275 2048.12 Q2567.1 1973.9450000000002 2486.475 1973.9450000000002 Q2405.85 1973.9450000000002 2331.675 2048.12 L2186.55 2193.245 Z"/></g><g id="Semibold-L" transform="matrix(1 0 0 1 1970.27 1556)"><path d="M206.95792500000002 3118.82  863.3196000000002 1283.2306250000001  2052.22875 2459.239775  206.95792500000002 3118.82 Z M1849.1892000000003 1877.8980499999998  1719.48615 1748.1950000000002  2469.78885 997.8923000000001 Q2580.280575 887.400575 2751.9795750000003 885.788075 Q2923.67535 884.175575 3035.9892000000004 994.6673000000002 L3090.8142000000003 1049.4923 L2959.289025 1179.19535 L2898.0140250000004 1117.9203499999999 Q2836.7390250000003 1056.6453499999998 2755.204575 1055.03285 Q2673.6669 1053.4203499999999 2610.9890250000003 1117.9203499999999 L1849.1892000000003 1877.8980499999998 Z M1294.485975 1337.9169499999998  1164.78615 1206.391775  1252.4223000000002 1116.9335 Q1328.419425 1042.7585 1323.5819250000002 948.533675 Q1318.744425 854.3088500000001 1252.4223000000002 787.9835 L1162.1223 697.6835 L1293.64425 567.9836750000001 L1377.49425 651.8336750000001 Q1497.660975 773.8225250000002 1496.048475 954.9836750000001 Q1494.435975 1136.1448249999999 1374.26925 1258.133675 L1294.485975 1337.9169499999998 Z M1577.5861499999999 1606.295  1446.060975 1476.59195  1919.8554 1002.80075 Q1981.1304 941.5257500000001 1979.5179 846.3882500000001 Q1977.9053999999999 751.25075 1916.6304 689.9757500000001 L1719.9053999999999 493.25075000000004 L1851.430575 361.725575 L2054.605575 564.900575 Q2161.8723 677.214425 2165.0973 846.3882500000001 Q2168.3223 1015.55885 2057.830575 1126.0505750000002 L1577.5861499999999 1606.295 Z M2129.064375 2160.998225  1997.5392000000002 2029.4730499999996  2141.822475 1887.0119 Q2263.811325 1765.0230499999998 2433.684975 1761.7980499999999 Q2603.56185 1758.57305 2725.5507 1880.5619000000002 L2890.0256999999997 2045.0369 L2758.5005250000004 2176.562075 L2590.800525 2008.862075 Q2516.6255250000004 1934.6870750000003 2436.0005250000004 1934.6870750000003 Q2355.3755250000004 1934.6870750000003 2281.200525 2008.862075 L2129.064375 2160.998225 Z"/></g><g id="Medium-L" transform="matrix(1 0 0 1 1674.31 1556)"><path d="M236.40540000000001 3070.445  860.162325 1326.3488750000001  1990.176525 2443.463075  236.40540000000001 3070.445 Z M1818.690375 1866.3267500000002  1700.5554 1748.1950000000002  2464.5321000000004 984.221525 Q2570.8152 877.9352 2734.6258500000004 876.3226999999999 Q2898.4332750000003 874.7102 3005.490375 980.9965249999999 L3060.315375 1035.8215249999998 L2941.4096250000002 1153.9532749999998 L2880.134625 1092.6782749999998 Q2818.859625 1031.4032750000001 2737.8508500000003 1029.790775 Q2656.83885 1028.1782749999998 2593.109625 1092.6782749999998 L1818.690375 1866.3267500000002 Z M1288.177875 1349.4882499999999  1170.0429 1230.5825  1262.939025 1136.9156000000003 Q1337.8848 1062.7406 1333.0473000000002 967.9901000000001 Q1328.2098 873.2396000000001 1262.939025 807.9656000000001 L1172.639025 717.6656 L1291.5415500000001 599.53385 L1375.39155 683.38385 Q1491.352875 800.11595 1489.740375 974.4401000000001 Q1488.1278750000001 1148.7642500000002 1372.1665500000001 1265.49635 L1288.177875 1349.4882499999999 Z M1558.6553999999999 1606.295  1439.7528750000001 1488.16325  1923.0126750000002 1004.9034499999999 Q1984.287675 943.62845 1982.675175 848.49095 Q1981.0626750000001 753.35345 1919.787675 692.07845 L1723.0626750000001 495.35344999999995 L1841.9652 376.4477 L2045.1402000000003 579.6227 Q2148.2015250000004 686.6798000000001 2151.4265250000003 848.49095 Q2154.651525 1010.3021000000002 2048.3652 1116.5852 L1558.6553999999999 1606.295 Z M2085.946125 2136.8075  1967.0403749999998 2017.90175  2115.52905 1870.1838500000003 Q2232.26115 1753.4517500000002 2395.2978 1750.2267500000003 Q2558.337675 1747.00175 2675.0697750000004 1863.73385 L2839.5447750000003 2028.20885 L2720.6390250000004 2147.1146 L2552.939025 1979.4146 Q2478.7640250000004 1905.2396000000003 2398.1390250000004 1905.2396000000003 Q2317.5140250000004 1905.2396000000003 2243.339025 1979.4146 L2085.946125 2136.8075 Z"/></g><g id="Regular-L" transform="matrix(1 0 0 1 1378.56 1556)"><path d="M258.0 3034.97  857.85 1357.9700000000003  1944.675 2431.895  258.0 3034.97 Z M1796.325 1857.8450000000003  1686.675 1748.1950000000002  2460.675 974.195 Q2563.875 870.995 2721.9 869.3825 Q2879.925 867.77 2983.125 970.9700000000001 L3037.9500000000003 1025.795 L2928.3 1135.4450000000002 L2867.025 1074.17 Q2805.75 1012.8950000000001 2725.125 1011.2825000000001 Q2644.5 1009.67 2580.0 1074.17 L1796.325 1857.8450000000003 Z M1283.55 1357.9700000000003  1173.9 1248.3200000000002  1270.65 1151.5700000000002 Q1344.825 1077.395 1339.9875 982.2575 Q1335.15 887.12 1270.65 822.62 L1180.3500000000001 732.32 L1290.0 622.6700000000001 L1373.8500000000001 706.52 Q1486.7250000000001 819.395 1485.1125 988.7075000000001 Q1483.5 1158.02 1370.625 1270.895 L1283.55 1357.9700000000003 Z M1544.775 1606.295  1435.125 1496.645  1925.325 1006.445 Q1986.6000000000001 945.17 1984.9875 850.0325 Q1983.375 754.895 1922.1000000000001 693.62 L1725.375 496.895 L1835.025 387.245 L2038.2 590.4200000000001 Q2138.175 693.62 2141.4 850.0325 Q2144.625 1006.445 2041.425 1109.645 L1544.775 1606.295 Z M2054.3250000000003 2119.07  1944.675 2009.42  2096.25 1857.8450000000003 Q2209.125 1744.9700000000003 2367.15 1741.745 Q2525.175 1738.52 2638.05 1851.395 L2802.525 2015.87 L2692.875 2125.52 L2525.175 1957.8200000000002 Q2451.0 1883.645 2370.375 1883.645 Q2289.75 1883.645 2215.5750000000003 1957.8200000000002 L2054.3250000000003 2119.07 Z"/></g><g id="Light-L" transform="matrix(1 0 0 1 1082.77 1556)"><path d="M360.958125 2928.290225  893.8248749999999 1439.8398500000003  1856.6002500000002 2393.4401000000003  360.958125 2928.290225 Z M1745.46675 1866.5299249999998  1655.6634000000001 1776.7265750000001  2401.1318250000004 1031.2581500000001 Q2498.13015 935.4982249999999 2644.9902 933.885725 Q2791.8502500000004 932.273225 2888.8485750000004 1029.27155 L2934.991875 1075.4148500000001 L2847.6685500000003 1165.2149749999999 L2797.5585 1113.866525 Q2733.803475 1050.108275 2648.2152 1049.1182000000003 Q2562.63015 1048.1248999999998 2496.8885250000003 1113.866525 L1745.46675 1866.5299249999998 Z M1276.1067 1406.3482250000002  1186.3033500000001 1317.7865000000002  1278.0933 1225.9997750000002 Q1357.22835 1146.8615 1353.632475 1043.0423 Q1350.0366 939.2198749999999 1278.0933 867.276575 L1191.51495 780.698225 L1281.315075 692.1365 L1362.68505 773.506475 Q1474.32165 883.8982249999999 1472.7091500000001 1047.6314750000001 Q1471.09665 1211.3615 1360.701675 1321.7532500000002 L1276.1067 1406.3482250000002 Z M1513.7634 1634.826575  1425.201675 1546.26485  1893.0717750000001 1077.1531250000003 Q1956.830025 1014.6365000000002 1955.8367250000001 918.257375 Q1954.843425 821.881475 1891.0884 758.1232249999999 L1706.76675 573.8048000000001 L1795.3284750000003 485.243075 L1984.8585000000003 673.531475 Q2079.87345 771.771425 2082.4760250000004 918.257375 Q2085.081825 1064.7465499999998 1986.8451000000002 1161.7448749999999 L1513.7634 1634.826575 Z M1981.13685 2104.1834  1891.3335000000002 2015.6216749999999  2005.6952250000002 1901.263175 Q2117.3286 1789.6265749999998 2274.1152 1787.020775 Q2430.898575 1784.4182 2542.53195 1896.051575 L2666.072025 2019.5916499999998 L2577.5103 2109.395 L2450.745225 1982.6299249999997 Q2371.6101750000003 1903.49165 2276.717775 1903.49165 Q2181.8286 1903.49165 2101.4519250000003 1982.6299249999997 L1981.13685 2104.1834 Z"/></g><g id="Thin-L" transform="matrix(1 0 0 1 787.282 1556)"><path d="M463.90335000000005 2821.626575  929.7933 1521.700025  1768.541625 2354.99165  463.90335000000005 2821.626575 Z M1694.61495 1875.211625  1624.655025 1805.2517000000003  2341.598325 1088.3084 Q2432.394975 999.995 2568.0933 998.3825 Q2703.791625 996.7700000000001 2794.588275 1087.5666500000002 L2832.04665 1125.025025 L2767.05 1194.981725 L2728.101675 1153.553375 Q2661.866625 1087.3183250000002 2571.3183 1086.9442250000002 Q2480.769975 1086.5733500000001 2413.78995 1153.553375 L1694.61495 1875.211625 Z M1268.666625 1454.7200000000003  1198.7067 1387.243325  1285.533375 1300.4166500000001 Q1369.6317000000001 1216.3183250000002 1367.2742250000001 1103.8142000000003 Q1364.919975 991.310075 1285.533375 911.9267000000001 L1202.676675 829.07 L1272.6333750000001 761.593325 L1351.523325 840.4800500000001 Q1461.9183 948.3950000000001 1460.3058 1106.5425500000001 Q1458.6933 1264.6933250000002 1350.77835 1372.6050500000001 L1268.666625 1454.7200000000003 Z M1482.7550250000002 1663.3517000000002  1415.27835 1595.8750250000003  1860.825 1147.8483500000002 Q1927.063275 1084.0933249999998 1926.689175 986.4725750000001 Q1926.3183000000001 888.8550500000001 1860.080025 822.62 L1688.16495 650.7017000000001 L1755.641625 583.2250250000001 L1931.526675 756.6300500000001 Q2021.57835 849.906725 2023.56495 986.4725750000001 Q2025.548325 1123.0416500000001 1932.2716500000001 1213.835075 L1482.7550250000002 1663.3517000000002 Z M1907.9616 2089.300025  1838.001675 2021.8233500000001  1915.15335 1944.671675 Q2025.548325 1834.2767 2181.0933 1832.293325 Q2336.6382750000002 1830.306725 2447.03325 1940.7017 L2529.641625 2023.3132999999998 L2462.16495 2093.27 L2376.3283500000002 2007.4366249999998 Q2292.23325 1923.3383 2183.0766750000003 1923.3383 Q2073.923325 1923.3383 1987.344975 2007.4366249999998 L1907.9616 2089.300025 Z"/></g><g id="Ultralight-L" transform="matrix(1 0 0 1 491.205 1556)"><path d="M525.6750000000001 2757.62  951.375 1570.8200000000002  1715.7 2331.92  525.6750000000001 2757.62 Z M1664.1000000000001 1880.42  1606.05 1822.37  2305.875 1122.545 Q2392.9500000000003 1038.6950000000002 2521.9500000000003 1037.0825 Q2650.9500000000003 1035.4700000000003 2738.025 1122.545 L2770.275 1154.795 L2718.675 1212.8450000000003 L2686.425 1177.37 Q2618.7000000000003 1109.645 2525.175 1109.645 Q2431.65 1109.645 2363.925 1177.37 L1664.1000000000001 1880.42 Z M1264.2 1483.745  1206.15 1428.92  1290.0 1345.0700000000002 Q1377.075 1257.995 1375.4625 1140.2825000000003 Q1373.8500000000001 1022.57 1290.0 938.7200000000001 L1209.375 858.095 L1267.425 803.27 L1344.825 880.6700000000001 Q1454.4750000000001 987.0950000000001 1452.8625 1141.895 Q1451.25 1296.6950000000002 1344.825 1403.12 L1264.2 1483.745 Z M1464.15 1680.4700000000003  1409.325 1625.645  1841.4750000000001 1190.27 Q1909.2 1125.77 1909.2 1027.4075000000003 Q1909.2 929.045 1841.4750000000001 861.32 L1677.0 696.845 L1731.825 642.02 L1899.525 806.495 Q1986.6000000000001 896.7950000000001 1988.2125 1027.4075000000003 Q1989.825 1158.02 1899.525 1245.0950000000003 L1464.15 1680.4700000000003 Z M1864.05 2080.37  1806.0 2025.545  1860.825 1970.7199999999998 Q1970.4750000000001 1861.0700000000002 2125.275 1859.4575 Q2280.0750000000003 1857.8450000000003 2389.725 1967.495 L2447.775 2025.545 L2392.9500000000003 2083.595 L2331.675 2022.3200000000002 Q2244.6 1935.245 2126.8875000000003 1935.245 Q2009.175 1935.245 1918.875 2022.3200000000002 L1864.05 2080.37 Z"/></g><g id="Bold-M" transform="matrix(1 0 0 1 2281.8 1126)"><path d="M210.0 5089.77  1420.0 1709.77  3595.0 3884.77  210.0 5089.77 Z M3105.0 2969.77  2820.0 2684.77  3855.0 1649.77 Q4045.0 1459.77 4317.5 1459.77 Q4590.0 1459.77 4780.0 1649.77 L4900.0 1769.77 L4610.0 2054.77 L4490.0 1934.77 Q4420.0 1864.77 4315.0 1864.77 Q4210.0 1864.77 4140.0 1934.77 L3105.0 2969.77 Z M2150.0 2019.77  1865.0 1729.77  1955.0 1639.77 Q2025.0 1569.77 2025.0 1469.77 Q2025.0 1369.77 1955.0 1299.77 L1825.0 1169.77 L2110.0 884.77 L2240.0 1014.77 Q2430.0 1204.77 2430.0 1472.27 Q2430.0 1739.77 2240.0 1929.77 L2150.0 2019.77 Z M2630.0 2494.77  2340.0 2209.77  3000.0 1549.77 Q3070.0 1479.77 3070.0 1374.77 Q3070.0 1269.77 3000.0 1199.77 L2680.0 879.77 L2970.0 594.77 L3290.0 914.77 Q3480.0 1104.77 3480.0 1374.77 Q3480.0 1644.77 3290.0 1834.77 L2630.0 2494.77 Z M3580.0 3449.77  3295.0 3159.77  3585.0 2869.77 Q3775.0 2679.77 4047.5 2679.77 Q4320.0 2679.77 4510.0 2869.77 L4830.0 3189.77 L4540.0 3479.77 L4220.0 3159.77 Q4150.0 3089.77 4045.0 3089.77 Q3940.0 3089.77 3870.0 3159.77 L3580.0 3449.77 Z"/></g><g id="Semibold-M" transform="matrix(1 0 0 1 1985.97 1126)"><path d="M292.605 4957.17  1411.305 1829.325  3423.27 3841.2949999999996  292.605 4957.17 Z M3020.225 2937.1650000000004  2767.83 2684.77  3839.785 1612.8149999999998 Q4016.74 1435.8600000000001 4268.59 1435.8600000000001 Q4520.44 1435.8600000000001 4697.395 1612.8149999999998 L4817.395 1732.8149999999998 L4562.174999999999 1985.21 L4442.174999999999 1865.21 Q4372.174999999999 1795.21 4267.174999999999 1795.21 Q4162.174999999999 1795.21 4092.1749999999997 1865.21 L3020.225 2937.1650000000004 Z M2132.61 2052.375  1880.2150000000001 1797.1549999999997  1983.26 1694.1150000000002 Q2053.2599999999998 1624.1150000000002 2053.2599999999998 1524.1150000000002 Q2053.2599999999998 1424.1150000000002 1983.26 1354.1150000000002 L1853.26 1224.1150000000002 L2105.65 971.7199999999998 L2235.65 1101.7199999999998 Q2412.61 1278.6799999999998 2412.61 1525.525 Q2412.61 1772.375 2235.65 1949.335 L2132.61 2052.375 Z M2577.83 2494.77  2322.61 2242.375  3008.695 1556.29 Q3078.695 1486.29 3078.695 1381.29 Q3078.695 1276.29 3008.695 1206.29 L2688.695 886.29 L2943.915 633.9 L3263.915 953.8999999999999 Q3440.87 1130.855 3440.87 1381.29 Q3440.87 1631.7250000000001 3263.915 1808.685 L2577.83 2494.77 Z M3462.6150000000002 3382.385  3210.225 3127.1650000000004  3513.2650000000003 2824.12 Q3690.225 2647.1650000000004 3942.0699999999997 2647.1650000000004 Q4193.92 2647.1650000000004 4370.88 2824.12 L4690.88 3144.12 L4435.66 3399.3399999999997 L4115.66 3079.3399999999997 Q4045.66 3009.3399999999997 3940.66 3009.3399999999997 Q3835.66 3009.3399999999997 3765.66 3079.3399999999997 L3462.6150000000002 3382.385 Z"/></g><g id="Medium-M" transform="matrix(1 0 0 1 1689.91 1126)"><path d="M354.565 4857.705  1404.7849999999999 1919.01  3294.46 3808.685  354.565 4857.705 Z M2956.63 2912.705  2728.695 2684.77  3828.37 1585.095 Q3995.545 1417.92 4231.905 1417.92 Q4468.26 1417.92 4635.4349999999995 1585.095 L4755.4349999999995 1705.095 L4526.305 1933.03 L4406.305 1813.03 Q4336.305 1743.03 4231.305 1743.03 Q4126.305 1743.03 4056.305 1813.03 L2956.63 2912.705 Z M2119.565 2076.835  1891.63 1847.705  2004.4550000000002 1734.8799999999999 Q2074.455 1664.8799999999999 2074.455 1564.8799999999999 Q2074.455 1464.8799999999999 2004.4550000000002 1394.8799999999999 L1874.4550000000002 1264.8799999999999 L2102.39 1036.945 L2232.39 1166.945 Q2399.565 1334.1150000000002 2399.565 1565.4750000000001 Q2399.565 1796.835 2232.39 1964.0100000000002 L2119.565 2076.835 Z M2538.6949999999997 2494.77  2309.565 2266.835  3015.215 1561.185 Q3085.215 1491.185 3085.215 1386.185 Q3085.215 1281.185 3015.215 1211.185 L2695.215 891.185 L2924.35 663.25 L3244.35 983.25 Q3411.52 1150.42 3411.52 1386.185 Q3411.52 1621.945 3244.35 1789.12 L2538.6949999999997 2494.77 Z M3374.565 3331.835  3146.63 3102.705  3459.455 2789.88 Q3626.63 2622.705 3862.99 2622.705 Q4099.35 2622.705 4266.525 2789.88 L4586.525 3109.88 L4357.395 3339.0099999999998 L4037.3950000000004 3019.0099999999998 Q3967.3950000000004 2949.0099999999998 3862.3950000000004 2949.0099999999998 Q3757.3950000000004 2949.0099999999998 3687.3950000000004 3019.0099999999998 L3374.565 3331.835 Z"/></g><g id="Regular-M" transform="matrix(1 0 0 1 1394.06 1126)"><path d="M400.0 4784.77  1400.0 1984.77  3200.0 3784.77  400.0 4784.77 Z M2910.0 2894.77  2700.0 2684.77  3820.0 1564.77 Q3980.0 1404.77 4205.0 1404.77 Q4430.0 1404.77 4590.0 1564.77 L4710.0 1684.77 L4500.0 1894.77 L4380.0 1774.77 Q4310.0 1704.77 4205.0 1704.77 Q4100.0 1704.77 4030.0 1774.77 L2910.0 2894.77 Z M2110.0 2094.77  1900.0 1884.77  2020.0 1764.77 Q2090.0 1694.77 2090.0 1594.77 Q2090.0 1494.77 2020.0 1424.77 L1890.0 1294.77 L2100.0 1084.77 L2230.0 1214.77 Q2390.0 1374.77 2390.0 1594.77 Q2390.0 1814.77 2230.0 1974.77 L2110.0 2094.77 Z M2510.0 2494.77  2300.0 2284.77  3020.0 1564.77 Q3090.0 1494.77 3090.0 1389.77 Q3090.0 1284.77 3020.0 1214.77 L2700.0 894.77 L2910.0 684.77 L3230.0 1004.77 Q3390.0 1164.77 3390.0 1389.77 Q3390.0 1614.77 3230.0 1774.77 L2510.0 2494.77 Z M3310.0 3294.77  3100.0 3084.77  3420.0 2764.77 Q3580.0 2604.77 3805.0 2604.77 Q4030.0 2604.77 4190.0 2764.77 L4510.0 3084.77 L4300.0 3294.77 L3980.0 2974.77 Q3910.0 2904.77 3805.0 2904.77 Q3700.0 2904.77 3630.0 2974.77 L3310.0 3294.77 Z"/></g><g id="Light-M" transform="matrix(1 0 0 1 1098.18 1126)"><path d="M559.625 4619.375000000001  1436.54 2165.55  3013.4500000000003 3742.46  559.625 4619.375000000001 Z M2796.53 2925.54  2628.84 2757.85  3725.76 1660.93 Q3876.1450000000004 1510.5449999999998 4089.6050000000005 1510.5449999999998 Q4303.07 1510.5449999999998 4453.450000000001 1660.93 L4550.375 1757.85 L4386.530000000001 1925.54 L4289.610000000001 1828.62 Q4208.07 1747.08 4091.53 1747.08 Q3974.9900000000002 1747.08 3893.4500000000003 1828.62 L2796.53 2925.54 Z M2065.7650000000003 2194.775  1898.075 2027.0900000000001  2018.075 1907.09 Q2107.31 1817.855 2107.31 1690.93 Q2107.31 1564.0049999999999 2018.075 1474.7749999999999 L1891.925 1348.62 L2059.61 1180.93 L2185.7650000000003 1307.085 Q2345.7650000000003 1467.085 2345.7650000000003 1690.93 Q2345.7650000000003 1914.7749999999999 2185.7650000000003 2074.775 L2065.7650000000003 2194.775 Z M2431.15 2560.16  2263.46 2392.4700000000003  2960.38 1695.55 Q3041.92 1614.01 3041.92 1497.47 Q3041.92 1380.93 2960.38 1299.3899999999999 L2663.46 1002.47 L2831.15 834.78 L3128.07 1131.7 Q3280.375 1284.01 3280.375 1497.47 Q3280.375 1710.93 3128.07 1863.24 L2431.15 2560.16 Z M3161.91 3290.9249999999997  2994.2250000000004 3123.235  3233.4500000000003 2884.0099999999998 Q3395.37 2722.0849999999996 3624.2200000000003 2722.0849999999996 Q3853.0650000000005 2722.0849999999996 4014.9849999999997 2884.0099999999998 L4254.21 3123.235 L4086.5249999999996 3290.9249999999997 L3847.3 3051.7 Q3756.1450000000004 2960.5449999999996 3624.2200000000003 2960.5449999999996 Q3492.29 2960.5449999999996 3401.1349999999998 3051.7 L3161.91 3290.9249999999997 Z"/></g><g id="Thin-M" transform="matrix(1 0 0 1 802.565 1126)"><path d="M719.23 4454.005  1473.075 2346.305  2826.925 3700.155  719.23 4454.005 Z M2683.08 2956.31  2557.6949999999997 2830.9249999999997  3631.54 1757.075 Q3772.31 1616.305 3974.23 1616.305 Q4176.155 1616.305 4316.925 1757.075 L4390.77 1830.925 L4273.08 1956.31 L4199.23 1882.46 Q4106.155 1789.385 3978.08 1789.385 Q3850.0 1789.385 3756.925 1882.46 L2683.08 2956.31 Z M2021.54 2294.77  1896.155 2169.3849999999998  2016.155 2049.3849999999998 Q2124.615 1940.92 2124.615 1787.075 Q2124.615 1633.23 2016.155 1524.77 L1893.845 1402.46 L2019.23 1277.075 L2141.54 1399.385 Q2301.54 1559.385 2301.54 1787.075 Q2301.54 2014.77 2141.54 2174.77 L2021.54 2294.77 Z M2352.31 2625.54  2226.925 2500.155  2900.77 1826.305 Q2993.8450000000003 1733.23 2993.8450000000003 1605.155 Q2993.8450000000003 1477.075 2900.77 1384.0 L2626.925 1110.155 L2752.31 984.77 L3026.1549999999997 1258.615 Q3170.77 1403.23 3170.77 1605.155 Q3170.77 1807.075 3026.1549999999997 1951.69 L2352.31 2625.54 Z M3013.85 3287.08  2888.465 3161.695  3046.925 3003.23 Q3210.77 2839.3849999999998 3443.465 2839.3849999999998 Q3676.1549999999997 2839.3849999999998 3840.0 3003.23 L3998.465 3161.695 L3873.08 3287.08 L3714.615 3128.6150000000002 Q3602.31 3016.31 3443.465 3016.31 Q3284.62 3016.31 3172.31 3128.6150000000002 L3013.85 3287.08 Z"/></g><g id="Ultralight-M" transform="matrix(1 0 0 1 506.415 1126)"><path d="M815.0 4354.77  1495.0 2454.77  2715.0 3674.77  815.0 4354.77 Z M2615.0 2974.77  2515.0 2874.77  3575.0 1814.77 Q3710.0 1679.77 3905.0 1679.77 Q4100.0 1679.77 4235.0 1814.77 L4295.0 1874.77 L4205.0 1974.77 L4145.0 1914.77 Q4045.0 1814.77 3910.0 1814.77 Q3775.0 1814.77 3675.0 1914.77 L2615.0 2974.77 Z M1995.0 2354.77  1895.0 2254.77  2015.0 2134.77 Q2135.0 2014.77 2135.0 1844.77 Q2135.0 1674.77 2015.0 1554.77 L1895.0 1434.77 L1995.0 1334.77 L2115.0 1454.77 Q2275.0 1614.77 2275.0 1844.77 Q2275.0 2074.77 2115.0 2234.77 L1995.0 2354.77 Z M2305.0 2664.77  2205.0 2564.77  2865.0 1904.77 Q2965.0 1804.77 2965.0 1669.77 Q2965.0 1534.77 2865.0 1434.77 L2605.0 1174.77 L2705.0 1074.77 L2965.0 1334.77 Q3105.0 1474.77 3105.0 1669.77 Q3105.0 1864.77 2965.0 2004.77 L2305.0 2664.77 Z M2925.0 3284.77  2825.0 3184.77  2935.0 3074.77 Q3100.0 2909.77 3335.0 2909.77 Q3570.0 2909.77 3735.0 3074.77 L3845.0 3184.77 L3745.0 3284.77 L3635.0 3174.77 Q3510.0 3049.77 3335.0 3049.77 Q3160.0 3049.77 3035.0 3174.77 L2925.0 3284.77 Z"/></g><g id="Bold-S" transform="matrix(1 0 0 1 2294.23 696)"><path d="M274.572 4727.174  1396.53 1569.596  3441.618 3609.95  274.572 4727.174 Z M2892.474 2743.6279999999997  2660.508 2511.662  3621.5099999999998 1545.9260000000002 Q3782.466 1384.97 4014.432 1384.97 Q4246.398 1384.97 4412.088 1545.9260000000002 L4577.778 1706.882 L4341.078 1943.582 L4180.122 1777.892 Q4113.846 1711.616 4016.799 1711.616 Q3919.752 1711.616 3853.476 1777.892 L2892.474 2743.6279999999997 Z M2097.162 1957.784  1865.196 1721.084  1997.748 1588.5320000000002 Q2064.024 1522.256 2064.024 1429.943 Q2064.024 1337.63 1997.748 1271.354 L1836.792 1105.664 L2068.758 873.6980000000001 L2229.714 1034.654 Q2385.936 1200.344 2385.936 1429.943 Q2385.936 1659.5420000000001 2229.714 1825.232 L2097.162 1957.784 Z M2499.552 2350.7059999999997  2258.118 2118.74  2764.656 1612.202 Q2830.932 1545.9260000000002 2830.932 1451.246 Q2830.932 1356.566 2764.656 1290.29 L2442.744 973.1120000000001 L2679.444 741.146 L3001.3559999999998 1063.058 Q3167.046 1228.748 3167.046 1458.347 Q3167.046 1687.9460000000001 3001.3559999999998 1848.902 L2499.552 2350.7059999999997 Z M3280.662 3141.2839999999997  3048.696 2904.584  3422.682 2530.598 Q3588.372 2374.3759999999997 3820.338 2372.009 Q4052.304 2369.642 4213.26 2530.598 L4535.172 2852.5099999999998 L4298.472 3089.21 L3976.56 2767.298 Q3910.284 2701.022 3815.604 2701.022 Q3720.924 2701.022 3654.648 2767.298 L3280.662 3141.2839999999997 Z"/></g><g id="Semibold-S" transform="matrix(1 0 0 1 1998.1 696)"><path d="M352.782414 4601.628320000001  1388.2975740000002 1682.790674  3279.024036 3568.7878699999997  352.782414 4601.628320000001 Z M2812.20903 2712.757586  2611.113444 2511.662  3607.104438 1510.9370059999999 Q3755.7094319999997 1362.332012 3968.1240119999998 1362.332012 Q4180.538592 1362.332012 4333.8775860000005 1510.9370059999999 L4499.567586 1671.893006 L4295.7972899999995 1877.722592 L4134.841289999999 1712.0325920000002 Q4068.5652899999995 1645.7565920000002 3971.5182899999995 1645.7565920000002 Q3874.47129 1645.7565920000002 3808.1952899999997 1712.0325920000002 L2812.20903 2712.757586 Z M2080.6971479999997 1988.6544140000003  1879.601562 1784.884118  2024.5045679999998 1639.9858460000003 Q2090.780568 1573.7098460000002 2090.780568 1481.396846 Q2090.780568 1389.0838460000002 2024.5045679999998 1322.8078460000002 L1863.548568 1157.117846 L2064.63942 956.02226 L2225.59542 1116.97826 Q2369.471148 1270.321988 2369.471148 1480.3648340000002 Q2369.471148 1690.4124140000001 2225.59542 1843.7561420000002 L2080.6971479999997 1988.6544140000003 Z M2450.157444 2350.7059999999997  2241.653148 2149.6104139999998  2772.888426 1618.3751359999999 Q2839.1644260000003 1552.099136 2839.1644260000003 1457.419136 Q2839.1644260000003 1362.739136 2772.888426 1296.4631359999998 L2450.976426 979.285136 L2654.746722 778.1942839999999 L2976.658722 1100.106284 Q3129.997716 1253.445278 3129.997716 1464.5201359999999 Q3129.997716 1675.594994 2976.658722 1824.2047220000002 L2450.157444 2350.7059999999997 Z M3169.521882 3077.483882  2968.4310299999997 2873.713586  3354.7633020000003 2487.3765799999996 Q3508.1070299999997 2343.505586 3720.516876 2341.1385859999996 Q3932.931456 2338.771586 4081.541184 2487.3765799999996 L4403.453184 2809.28858 L4199.682887999999 3013.0588759999996 L3877.7708879999996 2691.146876 Q3811.4948879999997 2624.870876 3716.814888 2624.870876 Q3622.1348879999996 2624.870876 3555.8588879999998 2691.146876 L3169.521882 3077.483882 Z"/></g><g id="Medium-S" transform="matrix(1 0 0 1 1701.85 696)"><path d="M411.446142 4507.454858  1382.124438 1767.7044320000002  3157.0667280000002 3537.912722  411.446142 4507.454858 Z M2751.997284 2689.598858  2574.060426 2511.662  3596.296716 1484.69171 Q3735.642006 1345.34642 3933.390654 1345.34642 Q4131.134568 1345.34642 4275.213858 1484.69171 L4440.903858 1645.64771 L4261.835574 1828.318568 L4100.879574 1662.628568 Q4034.6035739999998 1596.352568 3937.5565739999997 1596.352568 Q3840.5095739999997 1596.352568 3774.233574 1662.628568 L2751.997284 2689.598858 Z M2068.346142 2011.8131420000002  1890.409284 1832.744858  2044.5719940000001 1678.582148 Q2110.847994 1612.3061480000001 2110.847994 1519.993148 Q2110.847994 1427.680148 2044.5719940000001 1361.404148 L1883.615994 1195.714148 L2061.5528520000003 1017.77729 L2222.508852 1178.7332900000001 Q2357.120142 1322.8078460000002 2357.120142 1518.1894940000002 Q2357.120142 1713.571142 2222.508852 1857.6504320000001 L2068.346142 2011.8131420000002 Z M2413.104426 2350.7059999999997  2229.302142 2172.769142  2779.061562 1623.0097220000002 Q2845.337562 1556.7337220000002 2845.337562 1462.053722 Q2845.337562 1367.373722 2779.061562 1301.0977220000002 L2457.149562 983.9197220000001 L2636.22258 805.9828640000001 L2958.13458 1127.894864 Q3102.209136 1271.9694200000001 3102.209136 1469.1547220000002 Q3102.209136 1666.33529 2958.13458 1805.6805800000002 L2413.104426 2350.7059999999997 Z M3086.156142 3029.623142  2908.2192840000002 2850.554858  3303.8159939999996 2454.958148 Q3447.895284 2320.346858 3645.643932 2317.9798579999997 Q3843.39258 2315.612858 3982.73787 2454.958148 L4304.64987 2776.870148 L4125.581586 2955.9384319999995 L3803.669586 2634.0264319999997 Q3737.393586 2567.750432 3642.7135860000003 2567.750432 Q3548.033586 2567.750432 3481.757586 2634.0264319999997 L3086.156142 3029.623142 Z"/></g><g id="Regular-S" transform="matrix(1 0 0 1 1405.73 696)"><path d="M454.464 4438.400000000001  1377.594 1829.9660000000001  3067.632 3515.27  454.464 4438.400000000001 Z M2707.848 2672.618  2546.892 2511.662  3588.372 1465.448 Q3720.924 1332.896 3907.917 1332.896 Q4094.91 1332.896 4232.196 1465.448 L4397.886 1626.404 L4236.93 1792.094 L4075.974 1626.404 Q4009.698 1560.1280000000002 3912.651 1560.1280000000002 Q3815.604 1560.1280000000002 3749.328 1626.404 L2707.848 2672.618 Z M2059.29 2028.794  1898.334 1867.838  2059.29 1706.882 Q2125.566 1640.606 2125.566 1548.2930000000001 Q2125.566 1455.98 2059.29 1389.704 L1898.334 1224.0140000000001 L2059.29 1063.058 L2220.246 1224.0140000000001 Q2348.064 1361.3 2348.064 1545.9260000000002 Q2348.064 1730.5520000000001 2220.246 1867.838 L2059.29 2028.794 Z M2385.936 2350.7059999999997  2220.246 2189.75  2783.592 1626.404 Q2849.868 1560.1280000000002 2849.868 1465.448 Q2849.868 1370.768 2783.592 1304.492 L2461.68 987.3140000000001 L2622.636 826.358 L2944.548 1148.27 Q3081.834 1285.556 3081.834 1472.549 Q3081.834 1659.5420000000001 2944.548 1792.094 L2385.936 2350.7059999999997 Z M3025.026 2994.5299999999997  2864.07 2833.5739999999996  3266.46 2431.1839999999997 Q3403.746 2303.366 3590.739 2300.999 Q3777.732 2298.6319999999996 3910.284 2431.1839999999997 L4232.196 2753.096 L4071.24 2914.0519999999997 L3749.328 2592.14 Q3683.052 2525.864 3588.372 2525.864 Q3493.692 2525.864 3427.416 2592.14 L3025.026 2994.5299999999997 Z"/></g><g id="Light-S" transform="matrix(1 0 0 1 1109.75 696)"><path d="M605.59695 4281.804014  1412.1900719999999 2001.128504  2891.00646 3475.210892  605.59695 4281.804014 Z M2600.414604 2701.7510359999997  2479.5177120000003 2580.854144  3499.1455680000004 1556.4922880000001 Q3622.594086 1433.04377 3798.6610140000003 1433.04377 Q3974.732676 1433.04377 4102.91046 1556.4922880000001 L4246.75305 1695.596144 L4129.496604 1821.227036 L3990.392748 1677.38918 Q3913.190676 1600.187108 3805.2176040000004 1600.187108 Q3697.244532 1600.187108 3620.04246 1677.38918 L2600.414604 2701.7510359999997 Z M2017.408302 2123.478734  1896.51141 2002.586576  2057.46741 1841.630576 Q2141.955108 1757.142878 2141.955108 1639.3372880000002 Q2141.955108 1521.531698 2057.46741 1437.048734 L1900.15659 1274.99918 L2021.0487480000002 1154.1022880000003 L2178.364302 1311.417842 Q2306.182302 1448.7038420000001 2306.182302 1636.9702880000002 Q2306.182302 1825.2367339999998 2178.364302 1962.522734 L2017.408302 2123.478734 Z M2311.28082 2412.6172519999996  2185.649928 2291.72036  2727.143784 1750.226504 Q2804.345856 1673.0244320000002 2804.345856 1567.4183600000001 Q2804.345856 1461.812288 2727.143784 1384.610216 L2427.083928 1089.28436 L2547.98082 968.3874680000001 L2848.040676 1268.4473240000002 Q2978.0410500000003 1398.452432 2978.0410500000003 1574.5193600000002 Q2978.0410500000003 1750.5862880000002 2848.040676 1875.857396 L2311.28082 2412.6172519999996 Z M2884.814388 2990.889554  2763.92223 2869.9926619999997  3089.83446 2544.0804319999997 Q3228.9383159999998 2414.4398419999998 3419.576496 2412.0728419999996 Q3610.2099420000004 2409.705842 3744.5797979999998 2544.0804319999997 L3990.014028 2789.5146619999996 L3869.12187 2910.411554 L3623.68764 2664.9773239999995 Q3537.382086 2578.67177 3417.2094960000004 2578.67177 Q3297.0321719999997 2578.67177 3210.7266179999997 2664.9773239999995 L2884.814388 2990.889554 Z"/></g><g id="Thin-S" transform="matrix(1 0 0 1 814.015 696)"><path d="M756.710964 4125.2316980000005  1446.78141 2172.267338  2714.40459 3435.156518  756.710964 4125.2316980000005 Z M2493.000144 2730.884072  2412.1576259999997 2650.041554  3409.938072 1647.5223740000001 Q3524.283108 1533.1773380000002 3689.423964 1533.1773380000002 Q3854.569554 1533.1773380000002 3973.64859 1647.5223740000001 L4095.639036 1764.783554 L4022.082144 1850.360072 L3904.820964 1728.364892 Q3816.697554 1640.2414820000001 3697.803144 1640.2414820000001 Q3578.904 1640.2414820000001 3490.78059 1728.364892 L2493.000144 2730.884072 Z M1975.5360719999999 2218.154  1894.693554 2137.3114819999996  2055.649554 1976.3554820000002 Q2158.339482 1873.66082 2158.339482 1730.3673740000002 Q2158.339482 1587.073928 2055.649554 1484.384 L1901.974446 1325.9748920000002 L1982.816964 1245.132374 L2136.492072 1398.8074820000002 Q2264.3100719999998 1536.093482 2264.3100719999998 1728.0003740000002 Q2264.3100719999998 1919.912 2136.492072 2057.198 L1975.5360719999999 2218.154 Z M2236.635108 2474.5190359999997  2151.05859 2393.6765179999998  2670.705036 1874.0253380000001 Q2758.828446 1785.901928 2758.828446 1669.374518 Q2758.828446 1552.842374 2670.705036 1464.7189640000001 L2392.49259 1191.240518 L2473.3351079999998 1110.3980000000001 L2751.5475539999998 1388.6104460000001 Q2874.267036 1511.329928 2874.267036 1676.475518 Q2874.267036 1841.6163740000002 2751.5475539999998 1959.6018560000002 L2236.635108 2474.5190359999997 Z M2744.63118 2987.249108  2663.788662 2906.4065899999996  2913.23259 2656.957928 Q3054.159036 2525.4994819999997 3248.437662 2523.132482 Q3442.711554 2520.765482 3578.904 2656.957928 L3747.8746619999997 2825.92859 L3667.032144 2906.771108 L3498.061482 2737.8004459999997 Q3391.731108 2631.4700719999996 3246.070662 2631.4700719999996 Q3100.4102159999998 2631.4700719999996 2994.075108 2737.8004459999997 L2744.63118 2987.249108 Z"/></g><g id="Ultralight-S" transform="matrix(1 0 0 1 517.792 696)"><path d="M847.386 4031.2759999999994  1467.54 2274.962  2608.434 3411.122  847.386 4031.2759999999994 Z M2428.542 2748.3619999999996  2371.734 2691.5539999999996  3356.406 1702.1480000000001 Q3465.288 1593.266 3623.877 1593.266 Q3782.466 1593.266 3896.082 1702.1480000000001 L4004.964 1806.296 L3957.624 1867.838 L3853.476 1758.9560000000001 Q3758.796 1664.276 3633.345 1664.276 Q3507.894 1664.276 3413.214 1758.9560000000001 L2428.542 2748.3619999999996 Z M1950.408 2274.962  1893.6 2218.154  2054.556 2057.198 Q2168.172 1943.582 2168.172 1784.9930000000002 Q2168.172 1626.404 2054.556 1512.788 L1903.068 1356.566 L1959.876 1299.758 L2111.364 1451.246 Q2239.182 1588.5320000000002 2239.182 1782.626 Q2239.182 1976.72 2111.364 2114.006 L1950.408 2274.962 Z M2191.842 2511.662  2130.3 2454.854  2636.838 1948.316 Q2731.518 1853.636 2731.518 1730.5520000000001 Q2731.518 1607.468 2636.838 1512.788 L2371.734 1252.4180000000001 L2428.542 1195.6100000000001 L2693.646 1460.7140000000002 Q2811.996 1579.064 2811.996 1737.653 Q2811.996 1896.242 2693.646 2009.858 L2191.842 2511.662 Z M2660.508 2985.062  2603.7 2928.254  2807.262 2724.692 Q2949.282 2592.14 3145.743 2589.7729999999997 Q3342.204 2587.406 3479.49 2724.692 L3602.574 2847.776 L3545.766 2904.584 L3422.682 2781.5 Q3304.332 2663.1499999999996 3143.376 2663.1499999999996 Q2982.42 2663.1499999999996 2864.07 2781.5 L2660.508 2985.062 Z"/></g></g></svg>