<svg xmlns="http://www.w3.org/2000/svg" version="1.1" width="3300" height="2000"><g id="Notes"><style>
    text {
      font-family: monospace;
      text-anchor: middle;
    }
    text.emphasis {
      font-weight:bold;
    }
    text.lanchor {
      text-anchor: start;
    }
  </style><rect height="2200" id="artboard" fill="white" width="3300" x="0" y="0"/><line id="" style="fill:none;stroke:black;stroke-width:0.5;" x1="263" x2="3036" y1="292" y2="292"/><text class="lanchor emphasis" transform="matrix(1 0 0 1 263 322)">Weight/Scale Variations</text><text transform="matrix(1 0 0 1 559.711 322)">Ultralight</text><text transform="matrix(1 0 0 1 856.422 322)">Thin</text><text transform="matrix(1 0 0 1 1153.13 322)">Light</text><text transform="matrix(1 0 0 1 1449.84 322)">Regular</text><text transform="matrix(1 0 0 1 1746.56 322)">Medium</text><text transform="matrix(1 0 0 1 2043.27 322)">Semibold</text><text transform="matrix(1 0 0 1 2339.98 322)">Bold</text><text transform="matrix(1 0 0 1 2636.69 322)">Heavy</text><text transform="matrix(1 0 0 1 2933.4 322)">Black</text><text id="template-version" style="text-anchor: end;" transform="matrix(1 0 0 1 3036 1933)">Template v.1.0</text><text class="lanchor" transform="matrix(1 0 0 1 263 726)">Small</text><text class="lanchor" transform="matrix(1 0 0 1 263 1156)">Medium</text><text class="lanchor" transform="matrix(1 0 0 1 263 1586)">Large</text></g><g id="Guides"><g id="H-reference" style="fill:#27AAE1;stroke:none;" transform="matrix(1 0 0 1 339 696)"><path d="M 54.9316 0 L 57.666 0 L 30.5664 -70.459 L 28.0762 -70.459 L 0.976562 0 L 3.66211 0 L 12.9395 -24.4629 L 45.7031 -24.4629 Z M 29.1992 -67.0898 L 29.4434 -67.0898 L 44.8242 -26.709 L 13.8184 -26.709 Z"/></g><line id="Baseline-S" style="fill:none;stroke:#27AAE1;opacity:1;stroke-width:0.577;" x1="263" x2="3036" y1="696" y2="696"/><line id="Capline-S" style="fill:none;stroke:#27AAE1;opacity:1;stroke-width:0.577;" x1="263" x2="3036" y1="625.541" y2="625.541"/><g id="H-reference" style="fill:#27AAE1;stroke:none;" transform="matrix(1 0 0 1 339 1126)"><path d="M 54.9316 0 L 57.666 0 L 30.5664 -70.459 L 28.0762 -70.459 L 0.976562 0 L 3.66211 0 L 12.9395 -24.4629 L 45.7031 -24.4629 Z M 29.1992 -67.0898 L 29.4434 -67.0898 L 44.8242 -26.709 L 13.8184 -26.709 Z"/></g><line id="Baseline-M" style="fill:none;stroke:#27AAE1;opacity:1;stroke-width:0.577;" x1="263" x2="3036" y1="1126" y2="1126"/><line id="Capline-M" style="fill:none;stroke:#27AAE1;opacity:1;stroke-width:0.577;" x1="263" x2="3036" y1="1055.54" y2="1055.54"/><g id="H-reference" style="fill:#27AAE1;stroke:none;" transform="matrix(1 0 0 1 339 1556)"><path d="M 54.9316 0 L 57.666 0 L 30.5664 -70.459 L 28.0762 -70.459 L 0.976562 0 L 3.66211 0 L 12.9395 -24.4629 L 45.7031 -24.4629 Z M 29.1992 -67.0898 L 29.4434 -67.0898 L 44.8242 -26.709 L 13.8184 -26.709 Z"/></g><line id="Baseline-L" style="fill:none;stroke:#27AAE1;opacity:1;stroke-width:0.577;" x1="263" x2="3036" y1="1556" y2="1556"/><line id="Capline-L" style="fill:none;stroke:#27AAE1;opacity:1;stroke-width:0.577;" x1="263" x2="3036" y1="1485.54" y2="1485.54"/><rect height="119.336" id="left-margin" style="fill:darkred;stroke:none;opacity:0.4;" width="12.4512" x="1394.06" y="1030.79"/><rect height="119.336" id="right-margin" style="fill:darkgreen;stroke:none;opacity:0.4;" width="12.4512" x="1502.5112" y="1030.79"/><rect x="1406.5112" y="1045" width="96" height="96" fill="none" stroke="blue" stroke-dasharray="5"/><rect x="1394.06" y="1030.79" width="120.9024" height="119.336" fill="none" stroke="blue"/></g><g id="Symbols"><g id="Bold-L" transform="matrix(1 0 0 1 2266 1556)"><path d="M477.3 929.045 V622.6700000000001 H2625.15 V929.045 H477.3 Z M491.66737500000005 2867.27 V2077.145 H322.5 V1773.995 L478.01595000000003 1122.545 H2621.20905 L2776.725 1773.995 V2077.145 H2605.8 V2867.27 H2302.65 V2077.145 H1835.025 V2867.27 H491.66737500000005 Z M796.575 2564.12 H1531.875 V2077.145 H796.575 V2564.12 Z"/></g><g id="Semibold-L" transform="matrix(1 0 0 1 1970.27 1556)"><path d="M501.135975 929.045 V671.7416000000001 H2601.314025 V929.045 H501.135975 Z M516.26445 2819.59805 V2029.4730499999996 H351.94425 V1773.995 L501.53909999999996 1122.545 H2597.6859000000004 L2747.28075 1773.995 V2029.4730499999996 H2581.964025 V2819.59805 H2326.485975 V2029.4730499999996 H1811.1890250000001 V2819.59805 H516.26445 Z M772.7390250000001 2564.12 H1555.7109750000002 V2029.4730499999996 H772.7390250000001 V2564.12 Z"/></g><g id="Medium-L" transform="matrix(1 0 0 1 1674.31 1556)"><path d="M519.0153750000001 929.045 V708.55175 H2583.4346250000003 V929.045 H519.0153750000001 Z M534.7179 2783.842475 V1993.717475 H374.02905 V1773.995 L519.1863 1122.545 H2580.0387 L2725.1959500000003 1773.995 V1993.717475 H2564.0846250000004 V2783.842475 H2344.365375 V1993.717475 H1793.3096250000003 V2783.842475 H534.7179 Z M754.859625 2564.12 H1573.590375 V1993.717475 H754.859625 V2564.12 Z"/></g><g id="Regular-L" transform="matrix(1 0 0 1 1378.56 1556)"><path d="M532.125 929.045 V735.5450000000001 H2570.3250000000003 V929.045 H532.125 Z M548.25 2757.62 V1967.495 H390.225 V1773.995 L532.125 1122.545 H2567.1 L2709.0 1773.995 V1967.495 H2550.975 V2757.62 H2357.475 V1967.495 H1780.2 V2757.62 H548.25 Z M741.75 2564.12 H1586.7 V1967.495 H741.75 V2564.12 Z"/></g><g id="Light-L" transform="matrix(1 0 0 1 1082.77 1556)"><path d="M555.6933 907.9567250000001 V761.59655 H2545.5150750000003 V907.9567250000001 H555.6933 Z M571.8183 2730.33005 V1945.1651000000002 H406.35 V1798.804925 L555.6933 1148.5965499999998 H2543.5317 L2691.633375 1798.804925 V1945.1651000000002 H2526.1650750000003 V2730.33005 H2379.8049 V1945.1651000000002 H1755.390075 V2730.33005 H571.8183 Z M718.1817000000001 2583.96665 H1609.0299 V1945.1651000000002 H718.1817000000001 V2583.96665 Z"/></g><g id="Thin-L" transform="matrix(1 0 0 1 787.282 1556)"><path d="M579.258375 886.871675 V787.64165 H2520.708375 V886.871675 H579.258375 Z M595.383375 2703.043325 V1922.8416499999998 H422.475 V1823.611625 L579.258375 1174.64165 H2519.966625 L2674.269975 1823.611625 V1922.8416499999998 H2501.3583750000003 V2703.043325 H2402.12835 V1922.8416499999998 H1730.5833750000002 V2703.043325 H595.383375 Z M694.616625 2603.8133 H1631.35335 V1922.8416499999998 H694.616625 V2603.8133 Z"/></g><g id="Ultralight-L" transform="matrix(1 0 0 1 491.205 1556)"><path d="M593.4 874.22 V803.27 H2505.8250000000003 V874.22 H593.4 Z M609.525 2686.67 V1909.4450000000002 H432.15000000000003 V1838.495 L593.4 1190.27 H2505.8250000000003 L2663.85 1838.495 V1909.4450000000002 H2486.475 V2686.67 H2415.525 V1909.4450000000002 H1715.7 V2686.67 H609.525 Z M680.475 2615.72 H1644.75 V1909.4450000000002 H680.475 V2615.72 Z"/></g><g id="Bold-M" transform="matrix(1 0 0 1 2281.8 1126)"><path d="M685.0 1584.77 V954.77 H4115.0 V1584.77 H685.0 Z M683.18 4614.77 V3414.77 H460.0 V2784.77 L685.0 1784.77 H4115.0 L4340.0 2784.77 V3414.77 H4115.0 V4614.77 H3485.0 V3414.77 H2915.0 V4614.77 H683.18 Z M1315.0 3984.77 H2285.0 V3414.77 H1315.0 V3984.77 Z"/></g><g id="Semibold-M" transform="matrix(1 0 0 1 1985.97 1126)"><path d="M734.995 1584.77 V1054.7649999999999 H4065.005 V1584.77 H734.995 Z M733.97 4514.775000000001 V3314.775 H520.865 V2784.77 L734.995 1784.77 H4065.005 L4279.135 2784.77 V3314.775 H4065.005 V4514.775000000001 H3534.995 V3314.775 H2865.005 V4514.775000000001 H733.97 Z M1265.005 3984.77 H2334.995 V3314.775 H1265.005 V3984.77 Z"/></g><g id="Medium-M" transform="matrix(1 0 0 1 1689.91 1126)"><path d="M772.5 1584.77 V1129.77 H4027.5 V1584.77 H772.5 Z M772.065 4439.77 V3239.77 H566.52 V2784.77 L772.5 1784.77 H4027.5 L4233.4800000000005 2784.77 V3239.77 H4027.5 V4439.77 H3572.5 V3239.77 H2827.5 V4439.77 H772.065 Z M1227.5 3984.77 H2372.5 V3239.77 H1227.5 V3984.77 Z"/></g><g id="Regular-M" transform="matrix(1 0 0 1 1394.06 1126)"><path d="M800.0 1584.77 V1184.77 H4000.0 V1584.77 H800.0 Z M800.0 4384.77 V3184.77 H600.0 V2784.77 L800.0 1784.77 H4000.0 L4200.0 2784.77 V3184.77 H4000.0 V4384.77 H3600.0 V3184.77 H2800.0 V4384.77 H800.0 Z M1200.0 3984.77 H2400.0 V3184.77 H1200.0 V3984.77 Z"/></g><g id="Light-M" transform="matrix(1 0 0 1 1098.18 1126)"><path d="M842.31 1534.765 V1234.7749999999999 H3957.69 V1534.765 H842.31 Z M850.005 4334.765 V3134.765 H626.9250000000001 V2834.775 L842.31 1834.7749999999999 H3957.69 L4173.075 2834.775 V3134.765 H3949.995 V4334.765 H3650.005 V3134.765 H2749.995 V4334.765 H850.005 Z M1149.995 4034.775 H2450.005 V3134.765 H1149.995 V4034.775 Z"/></g><g id="Thin-M" transform="matrix(1 0 0 1 802.565 1126)"><path d="M884.615 1484.77 V1284.77 H3915.385 V1484.77 H884.615 Z M900.0 4284.77 V3084.77 H653.845 V2884.77 L884.615 1884.77 H3915.385 L4146.155 2884.77 V3084.77 H3900.0 V4284.77 H3700.0 V3084.77 H2700.0 V4284.77 H900.0 Z M1100.0 4084.77 H2500.0 V3084.77 H1100.0 V4084.77 Z"/></g><g id="Ultralight-M" transform="matrix(1 0 0 1 506.415 1126)"><path d="M910.0 1454.77 V1314.77 H3890.0 V1454.77 H910.0 Z M930.0 4254.77 V3054.77 H670.0 V2914.77 L910.0 1914.77 H3890.0 L4130.0 2914.77 V3054.77 H3870.0 V4254.77 H3730.0 V3054.77 H2670.0 V4254.77 H930.0 Z M1070.0 4114.77 H2530.0 V3054.77 H1070.0 V4114.77 Z"/></g><g id="Bold-S" transform="matrix(1 0 0 1 2294.23 696)"><path d="M800.046 1621.67 V1063.058 H3744.594 V1621.67 H800.046 Z M798.322824 4338.986 V3316.442 H549.144 V2757.83 L800.046 1848.902 H3744.594 L3995.496 2757.83 V3316.442 H3744.594 V4338.986 H3185.982 V3316.442 H2608.434 V4338.986 H798.322824 Z M1358.658 3780.374 H2049.822 V3316.442 H1358.658 V3780.374 Z"/></g><g id="Semibold-S" transform="matrix(1 0 0 1 1998.1 696)"><path d="M847.381266 1621.67 V1157.7332660000002 H3697.258734 V1621.67 H847.381266 Z M846.410796 4244.310734000001 V3221.766734 H606.770982 V2757.83 L847.381266 1848.902 H3697.258734 L3937.869018 2757.83 V3221.766734 H3697.258734 V4244.310734000001 H3233.317266 V3221.766734 H2561.0987339999997 V4244.310734000001 H846.410796 Z M1311.3227339999999 3780.374 H2097.157266 V3221.766734 H1311.3227339999999 V3780.374 Z"/></g><g id="Medium-S" transform="matrix(1 0 0 1 1701.85 696)"><path d="M882.891 1621.67 V1228.748 H3661.749 V1621.67 H882.891 Z M882.479142 4173.296 V3150.752 H649.997136 V2757.83 L882.891 1848.902 H3661.749 L3894.642864 2757.83 V3150.752 H3661.749 V4173.296 H3268.8269999999998 V3150.752 H2525.589 V4173.296 H882.479142 Z M1275.813 3780.374 H2132.667 V3150.752 H1275.813 V3780.374 Z"/></g><g id="Regular-S" transform="matrix(1 0 0 1 1405.73 696)"><path d="M908.928 1621.67 V1280.8220000000001 H3635.712 V1621.67 H908.928 Z M908.928 4121.222000000001 V3098.678 H681.696 V2757.83 L908.928 1848.902 H3635.712 L3862.944 2757.83 V3098.678 H3635.712 V4121.222000000001 H3294.864 V3098.678 H2499.552 V4121.222000000001 H908.928 Z M1249.776 3780.374 H2158.704 V3098.678 H1249.776 V3780.374 Z"/></g><g id="Light-S" transform="matrix(1 0 0 1 1109.75 696)"><path d="M948.9871079999999 1574.3252660000003 V1328.166734 H3595.652892 V1574.3252660000003 H948.9871079999999 Z M956.272734 4073.877266 V3051.333266 H707.18859 V2805.1747339999997 L948.9871079999999 1896.2467339999998 H3595.652892 L3837.45141 2805.1747339999997 V3051.333266 H3588.367266 V4073.877266 H3342.208734 V3051.333266 H2452.207266 V4073.877266 H956.272734 Z M1202.431266 3827.7187339999996 H2206.048734 V3051.333266 H1202.431266 V3827.7187339999996 Z"/></g><g id="Thin-S" transform="matrix(1 0 0 1 814.015 696)"><path d="M989.041482 1526.99 V1375.502 H3555.598518 V1526.99 H989.041482 Z M1003.608 4026.542 V3003.998 H732.676446 V2852.5099999999998 L989.041482 1943.582 H3555.598518 L3811.963554 2852.5099999999998 V3003.998 H3541.032 V4026.542 H3389.544 V3003.998 H2404.872 V4026.542 H1003.608 Z M1155.096 3875.0539999999996 H2253.384 V3003.998 H1155.096 V3875.0539999999996 Z"/></g><g id="Ultralight-S" transform="matrix(1 0 0 1 517.792 696)"><path d="M1013.076 1498.586 V1403.906 H3531.564 V1498.586 H1013.076 Z M1032.012 3998.138 V2975.594 H747.972 V2880.9139999999998 L1013.076 1971.986 H3531.564 L3796.668 2880.9139999999998 V2975.594 H3512.628 V3998.138 H3417.948 V2975.594 H2376.468 V3998.138 H1032.012 Z M1126.692 3903.4579999999996 H2281.788 V2975.594 H1126.692 V3903.4579999999996 Z"/></g></g></svg>